<svg width="17" height="16" viewBox="0 0 17 16" fill="none" xmlns="http://www.w3.org/2000/svg">
<path d="M0.969644 14.4697C0.67675 14.7626 0.67675 15.2374 0.969644 15.5303C1.26254 15.8232 1.73741 15.8232 2.0303 15.5303L8.49999 9.06064L14.9697 15.5303C15.2626 15.8232 15.7374 15.8232 16.0303 15.5303C16.3232 15.2374 16.3232 14.7626 16.0303 14.4697L9.56065 7.99998L16.0303 1.53033C16.3232 1.23744 16.3232 0.762563 16.0303 0.46967C15.7374 0.176777 15.2625 0.176777 14.9696 0.46967L8.49999 6.93932L2.03033 0.469666C1.73744 0.176773 1.26256 0.176773 0.969672 0.469666C0.676778 0.762559 0.676778 1.23743 0.969672 1.53033L7.43933 7.99998L0.969644 14.4697Z" fill="#121212"/>
</svg>
