<svg width="12" height="18" viewBox="0 0 12 18" fill="none" xmlns="http://www.w3.org/2000/svg">
<path d="M6.75 1C6.75 0.585786 6.41421 0.25 6 0.25C5.58579 0.25 5.25 0.585786 5.25 1L5.25 16.0309C5.1434 15.9655 5.02509 15.8813 4.89071 15.7734C4.47718 15.4413 3.98914 14.9505 3.28 14.235L1.53269 12.472C1.24111 12.1778 0.766238 12.1757 0.472041 12.4673C0.177844 12.7589 0.175726 13.2338 0.467309 13.528L2.2461 15.3227C2.91604 15.9987 3.46359 16.5511 3.95146 16.9429C4.45879 17.3504 4.97373 17.6453 5.59184 17.7241C5.86286 17.7586 6.13713 17.7586 6.40816 17.7241C7.02628 17.6453 7.54122 17.3504 8.04854 16.9429C8.53641 16.5511 9.08395 15.9987 9.75389 15.3227L11.5327 13.528C11.8243 13.2338 11.8222 12.7589 11.528 12.4673C11.2338 12.1757 10.7589 12.1778 10.4673 12.472L8.72 14.235C8.01086 14.9505 7.52282 15.4413 7.10929 15.7734C6.97491 15.8813 6.8566 15.9655 6.75 16.0309L6.75 1Z" fill="#121212"/>
</svg>
