<svg width="24" height="25" viewBox="0 0 24 25" fill="none" xmlns="http://www.w3.org/2000/svg">
<g clip-path="url(#clip0_4001_296)">
<path fill-rule="evenodd" clip-rule="evenodd" d="M11 0.75C5.61522 0.75 1.25 5.11522 1.25 10.5C1.25 15.8848 5.61522 20.25 11 20.25C16.3848 20.25 20.75 15.8848 20.75 10.5C20.75 5.11522 16.3848 0.75 11 0.75ZM2.75 10.5C2.75 5.94365 6.44365 2.25 11 2.25C15.5563 2.25 19.25 5.94365 19.25 10.5C19.25 15.0563 15.5563 18.75 11 18.75C6.44365 18.75 2.75 15.0563 2.75 10.5Z" fill="#121212"/>
<path d="M19.5304 17.9698C19.2375 17.6769 18.7626 17.6769 18.4697 17.9698C18.1768 18.2626 18.1768 18.7375 18.4697 19.0304L22.4696 23.0304C22.7625 23.3233 23.2374 23.3233 23.5303 23.0304C23.8232 22.7375 23.8232 22.2626 23.5303 21.9697L19.5304 17.9698Z" fill="#121212"/>
</g>
<defs>
<clipPath id="clip0_4001_296">
<rect width="24" height="24" fill="white" transform="translate(0 0.5)"/>
</clipPath>
</defs>
</svg>
