<svg width="40" height="39" viewBox="0 0 40 39" fill="none" xmlns="http://www.w3.org/2000/svg">
<path d="M33.0658 -0.0324707H6.39909C2.71742 -0.0324707 -0.267578 2.875 -0.267578 6.46104V32.4351C-0.267578 36.0211 2.71742 38.9286 6.39909 38.9286H33.0658C36.7474 38.9286 39.7324 36.0211 39.7324 32.4351V6.46104C39.7324 2.875 36.7474 -0.0324707 33.0658 -0.0324707ZM28.3349 28.3766C27.3191 25.289 24.7874 22.9002 21.4391 22.5755V28.3766H20.9224C11.8124 28.3766 6.61576 22.2825 6.39909 12.1429H10.9633C11.1133 19.5852 14.4774 22.7378 17.1424 23.388V12.1429H21.4399V18.5617C24.0716 18.2857 26.8366 15.3604 27.7691 12.1429H32.0666C31.3508 16.108 28.3524 19.0325 26.2199 20.2354C28.3516 21.2102 31.7666 23.7614 33.0658 28.3766H28.3349Z" fill="#2196F3"/>
</svg>
