<svg width="40" height="40" viewBox="0 0 40 40" fill="none" xmlns="http://www.w3.org/2000/svg">
<path d="M37.5149 19.1891C37.5181 19.1891 37.5205 19.1891 37.5237 19.1891C37.7469 19.1891 37.9597 19.0955 38.1109 18.9315C38.2645 18.7651 38.3405 18.5419 38.3205 18.3163C37.5173 9.48191 30.5229 2.48511 21.6877 1.68031C21.4637 1.66271 21.2381 1.73551 21.0717 1.88991C20.9053 2.04351 20.8125 2.26031 20.8149 2.48671C20.9541 14.2275 22.5029 19.0251 37.5149 19.1891ZM37.5149 20.8115C22.5029 20.9755 20.9549 25.7731 20.8157 37.5139C20.8133 37.7403 20.9061 37.9571 21.0725 38.1107C21.2213 38.2475 21.4157 38.3235 21.6157 38.3235C21.6397 38.3235 21.6645 38.3227 21.6885 38.3203C30.5237 37.5155 37.5181 30.5195 38.3205 21.6843C38.3405 21.4587 38.2653 21.2355 38.1109 21.0691C37.9565 20.9027 37.7413 20.8203 37.5149 20.8115ZM18.2581 1.68431C9.45093 2.51231 2.47893 9.50751 1.67973 18.3179C1.65973 18.5435 1.73493 18.7667 1.88933 18.9331C2.04053 19.0971 2.25413 19.1899 2.47653 19.1899C2.47973 19.1899 2.48293 19.1899 2.48613 19.1899C17.4485 19.0179 18.9933 14.2227 19.1341 2.48991C19.1365 2.26351 19.0429 2.04591 18.8765 1.89231C18.7085 1.73871 18.4837 1.66351 18.2581 1.68431ZM2.48533 20.8107C2.23653 20.7827 2.04133 20.9011 1.88853 21.0675C1.73493 21.2339 1.65893 21.4571 1.67893 21.6827C2.47813 30.4931 9.45093 37.4883 18.2581 38.3163C18.2829 38.3187 18.3085 38.3195 18.3333 38.3195C18.5333 38.3195 18.7269 38.2443 18.8757 38.1075C19.0421 37.9539 19.1357 37.7363 19.1333 37.5099C18.9925 25.7779 17.4485 20.9827 2.48533 20.8107Z" fill="#2196F3"/>
</svg>
